<?xml version="1.0" encoding="UTF-8"?>
<svg id="Ebene_2" xmlns="http://www.w3.org/2000/svg" version="1.1" viewBox="0 0 28.8 28.8">
  <!-- Generator: Adobe Illustrator 29.5.1, SVG Export Plug-In . SVG Version: 2.1.0 Build 141)  -->
  <defs>
    <style>
      .st0 {
        fill: #1d1d1b;
      }
    </style>
  </defs>
  <g id="Ebene_1-2">
    <g>
      <path class="st0" d="M14.39,4.61c-3.25,0-5.9,2.64-5.9,5.9h3c0-1.6,1.31-2.9,2.9-2.9s2.91,1.3,2.91,2.9h3c0-3.26-2.65-5.9-5.91-5.9Z"/>
      <path class="st0" d="M14.4,0C6.46,0,0,6.46,0,14.4s6.46,14.4,14.4,14.4,14.4-6.46,14.4-14.4S22.34,0,14.4,0ZM14.4,25.8c-6.29,0-11.4-5.11-11.4-11.4S8.11,3,14.4,3s11.4,5.12,11.4,11.4-5.12,11.4-11.4,11.4Z"/>
      <path class="st0" d="M6.16,11.51l1,8.91c.14,1.27,1.22,2.24,2.5,2.24h9.47c1.28,0,2.36-.96,2.5-2.24l1-8.91H6.16ZM10.92,19.66h-.82l-.58-5.15h.97M15.14,17.09l-.15,2.57h-1.19l-.15-2.57-.16-2.58h1.81s-.16,2.58-.16,2.58ZM18.3,14.51h.97l-.57,5.15h-.83"/>
    </g>
  </g>
</svg>