<?xml version="1.0" encoding="UTF-8"?>
<svg id="Ebene_2" data-name="Ebene 2" xmlns="http://www.w3.org/2000/svg" viewBox="0 0 27.8 27.8">
  <defs>
    <style>
      .cls-1 {
        fill: #fff;
      }
    </style>
  </defs>
  <g id="Ebene_1-2" data-name="Ebene 1">
    <g>
      <path class="cls-1" d="M13.89,5.61c-2.81,0-5.12,2.16-5.38,4.9h2.02c.24-1.64,1.66-2.9,3.36-2.9s3.13,1.26,3.37,2.9h2.02c-.26-2.74-2.58-4.9-5.39-4.9Z"/>
      <path class="cls-1" d="M13.9,0C6.24,0,0,6.24,0,13.9s6.24,13.9,13.9,13.9,13.9-6.24,13.9-13.9S21.56,0,13.9,0ZM13.9,25.8c-6.56,0-11.9-5.34-11.9-11.9S7.34,2,13.9,2s11.9,5.34,11.9,11.9-5.34,11.9-11.9,11.9Z"/>
      <path class="cls-1" d="M6.23,11.51l.94,8.36c.11,1.02.97,1.79,2,1.79h9.47c1.03,0,1.89-.77,2-1.79l.94-8.36H6.23ZM10.86,19.66h-1.7l-.69-6.15h1.76l.63,6.15ZM14.73,19.66h-1.67l-.37-6.15h2.41l-.37,6.15ZM18.65,19.66h-1.71l.63-6.15h1.76l-.68,6.15Z"/>
    </g>
  </g>
</svg>