<?xml version="1.0" encoding="UTF-8"?>
<svg id="Ebene_2" data-name="Ebene 2" xmlns="http://www.w3.org/2000/svg" viewBox="0 0 153.63 70.15">
  <g id="Ebene_1-2" data-name="Ebene 1">
    <polygon points="32.34 48.48 28.18 48.48 28.13 26.33 17.15 44.79 15.15 44.79 4.17 26.47 4.17 48.48 0 48.48 0 18.1 3.56 18.1 16.23 39.44 28.74 18.1 32.3 18.1 32.34 48.48"/>
    <path d="M57.26,25.48v23h-.51c-1.9,0-3.44-1.54-3.44-3.44h0c-.71,1.01-1.62,1.82-2.73,2.44-1.51.84-3.2,1.26-5.08,1.26s-3.7-.36-5.19-1.08c-1.49-.72-2.65-1.83-3.47-3.32s-1.24-3.37-1.24-5.62v-13.24h4.17v12.76c0,2.26.54,3.95,1.63,5.08,1.08,1.13,2.61,1.69,4.58,1.69,1.44,0,2.7-.3,3.77-.89,1.07-.59,1.9-1.46,2.48-2.6.58-1.15.87-2.53.87-4.15v-11.89h4.16Z"/>
    <path d="M116.2,30.88c-.97-1.78-2.31-3.16-4.02-4.14-1.7-.99-3.67-1.48-5.9-1.48s-4.17.5-5.93,1.5c-1.75,1-3.12,2.38-4.12,4.14-1,1.77-1.5,3.79-1.5,6.08s.52,4.31,1.54,6.08c1.03,1.76,2.48,3.15,4.34,4.16,1.87,1.02,4.03,1.52,6.49,1.52,1.91,0,3.64-.31,5.19-.95s2.84-1.56,3.89-2.78l-.14-.16c-1.1-1.29-2.94-1.54-4.44-.75-.21.11-.43.21-.65.3-1.12.47-2.36.7-3.72.7-1.64,0-3.11-.34-4.38-1-1.27-.67-2.26-1.6-2.97-2.8-.52-.89-.86-1.86-.99-2.93h18.68c.02-.2.05-.42.06-.65.02-.23.02-.44.02-.61,0-2.37-.48-4.45-1.45-6.23ZM98.88,35.37c.12-1.05.42-2.01.89-2.88.63-1.17,1.52-2.09,2.65-2.74,1.12-.65,2.41-.97,3.86-.97s2.77.32,3.88.97c1.12.65,1.99,1.56,2.63,2.72.48.87.77,1.84.87,2.9h-14.78Z"/>
    <path d="M145.02,25.48c-2.06,0-3.75,1.62-3.87,3.65-.79-1.08-1.75-1.94-2.88-2.57-1.56-.87-3.34-1.3-5.34-1.3-2.23,0-4.22.49-5.97,1.48-1.75.98-3.13,2.35-4.14,4.1-1.02,1.75-1.52,3.8-1.52,6.14s.5,4.4,1.52,6.16c1.01,1.77,2.39,3.14,4.14,4.13,1.75.98,3.74,1.47,5.97,1.47,1.94,0,3.69-.44,5.25-1.32,1.08-.6,2-1.41,2.78-2.42v11.9h4.17v-31.42h-.11ZM139.99,41.26c-.68,1.23-1.61,2.17-2.78,2.84-1.17.66-2.48,1-3.93,1s-2.79-.34-3.95-1c-1.16-.67-2.08-1.61-2.78-2.84-.69-1.23-1.04-2.66-1.04-4.28s.35-3.07,1.04-4.28c.7-1.2,1.62-2.13,2.78-2.8,1.16-.66,2.47-.99,3.95-.99s2.76.33,3.93.99c1.17.67,2.1,1.6,2.78,2.8.68,1.21,1.02,2.63,1.02,4.28s-.34,3.05-1.02,4.28Z"/>
    <path d="M150.81,21.05c-.81,0-1.48-.26-2.02-.78-.54-.52-.8-1.16-.8-1.91s.27-1.43.8-1.95c.54-.52,1.21-.78,2.02-.78s1.48.25,2.02.76c.53.51.8,1.14.8,1.89s-.26,1.44-.78,1.98c-.52.54-1.2.8-2.04.8ZM148.73,48.48v-23.01h4.17v23.01h-4.17Z"/>
    <g>
      <path d="M76,52.74c-.7,0-1.4-.04-2.08-.12v9.52c0,2.13-1.73,3.86-3.86,3.86s-3.84-1.73-3.84-3.86,1.73-3.84,3.84-3.84c1.01,0,1.94.4,2.62,1.03v-4.73c-.84-.31-1.72-.46-2.62-.46-4.41,0-8.01,3.6-8.01,8.01s3.6,8.02,8.01,8.02,8.02-3.6,8.02-8.02v-9.52c-.68.09-1.38.12-2.09.12Z"/>
      <path d="M92.02,35.48c0,.89-.07,1.78-.21,2.63-1.12,6.75-6.39,12.03-13.14,13.16-.02,0-.04.01-.06.01-1.67.28-3.51.28-5.2,0-.02,0-.04-.01-.06-.01-7.74-1.29-13.36-7.92-13.36-15.8,0-5.83,3.18-11.21,8.29-14.03,1.38-.77,2.87-1.31,4.41-1.64v3.92c-5.27,1.47-8.9,6.23-8.9,11.75s3.63,10.28,8.9,11.74v.02l.23.05c.07.02.16.04.23.06,1.87.44,3.86.44,5.7,0l.47-.11h0c4.19-1.2,7.53-4.62,8.55-8.89l.17-.77h-8.73c0-2.34,1.9-4.24,4.24-4.24h8.32c.09.69.14,1.41.14,2.13Z"/>
      <path d="M87.66,11.66c0,3.39-1.47,6.59-4.03,8.8-1.24,1.09-2.71,1.89-4.3,2.36v-4.14c2.74-1.27,4.49-4,4.49-7.06s-1.74-5.77-4.49-7.04c-.23-.1-.44-.17-.62-.23-.4-.12-.62-.15-.62-.15v42.07c-.16.04-.33.06-.51.09s-.36.05-.54.06c-.17.01-.35.02-.52.04-.35.01-.7.01-1.05,0-.12-.01-.26-.01-.38-.02-.25-.02-.49-.05-.73-.09-.15-.02-.28-.05-.43-.07V.19c1.35-.25,2.83-.25,4.17,0,0,0,.26.04.62.12.19.04.4.1.62.17,4.94,1.46,8.33,5.94,8.33,11.17Z"/>
    </g>
  </g>
</svg>