<?xml version="1.0" encoding="UTF-8" standalone="no"?>
<!DOCTYPE svg PUBLIC "-//W3C//DTD SVG 1.1//EN" "http://www.w3.org/Graphics/SVG/1.1/DTD/svg11.dtd">
<svg width="100%" height="100%" viewBox="0 0 134 293" version="1.1" xmlns="http://www.w3.org/2000/svg" xmlns:xlink="http://www.w3.org/1999/xlink" xml:space="preserve" xmlns:serif="http://www.serif.com/" style="fill-rule:evenodd;clip-rule:evenodd;stroke-linejoin:round;stroke-miterlimit:2;">
    <g transform="matrix(1,0,0,1,-1630.41,-658.407)">
        <g transform="matrix(4.16667,0,0,4.16667,0,0)">
            <g transform="matrix(1,0,0,1,407.317,228.047)">
                <path d="M0,-17.291C-0.704,-17.291 -1.397,-17.328 -2.076,-17.415L-2.076,-7.898C-2.076,-5.772 -3.807,-4.041 -5.933,-4.041C-8.046,-4.041 -9.776,-5.772 -9.776,-7.898C-9.776,-10.011 -8.046,-11.742 -5.933,-11.742C-4.919,-11.742 -3.992,-11.346 -3.312,-10.716L-3.312,-15.449C-4.153,-15.758 -5.03,-15.907 -5.933,-15.907C-10.345,-15.907 -13.942,-12.31 -13.942,-7.898C-13.942,-3.473 -10.345,0.124 -5.933,0.124C-1.508,0.124 2.089,-3.473 2.089,-7.898L2.089,-17.415C1.409,-17.328 0.705,-17.291 0,-17.291" style="fill:white;fill-rule:nonzero;"/>
            </g>
        </g>
        <g transform="matrix(4.16667,0,0,4.16667,0,0)">
            <g transform="matrix(1,0,0,1,423.335,193.922)">
                <path d="M0,-0.42C0,0.47 -0.074,1.36 -0.21,2.213C-1.335,8.961 -6.6,14.239 -13.348,15.376C-13.373,15.376 -13.385,15.388 -13.41,15.388C-15.079,15.672 -16.92,15.672 -18.614,15.388C-18.638,15.388 -18.651,15.376 -18.675,15.376C-26.413,14.09 -32.036,7.453 -32.036,-0.42C-32.036,-6.254 -28.86,-11.63 -23.743,-14.448C-22.359,-15.214 -20.875,-15.758 -19.331,-16.092L-19.331,-12.174C-24.596,-10.703 -28.229,-5.945 -28.229,-0.42C-28.229,5.105 -24.596,9.863 -19.331,11.322L-19.331,11.346L-19.096,11.396C-19.022,11.421 -18.935,11.433 -18.861,11.458C-16.995,11.903 -15.005,11.903 -13.163,11.458L-12.693,11.346L-12.693,11.334C-8.503,10.148 -5.166,6.724 -4.14,2.46L-3.967,1.694L-12.693,1.694C-12.693,-0.648 -10.795,-2.546 -8.454,-2.546L-0.136,-2.546C-0.049,-1.854 0,-1.137 0,-0.42" style="fill:white;fill-rule:nonzero;"/>
            </g>
        </g>
        <g transform="matrix(4.16667,0,0,4.16667,0,0)">
            <g transform="matrix(1,0,0,1,418.972,192.761)">
                <path d="M0,-23.088C0,-19.701 -1.471,-16.5 -4.029,-14.288C-5.265,-13.2 -6.736,-12.397 -8.33,-11.927L-8.33,-16.068C-5.587,-17.341 -3.844,-20.072 -3.844,-23.125C-3.844,-26.178 -5.587,-28.897 -8.33,-30.17C-8.565,-30.269 -8.775,-30.343 -8.948,-30.405C-9.344,-30.529 -9.566,-30.553 -9.566,-30.553L-9.566,11.519C-9.727,11.556 -9.9,11.581 -10.073,11.606C-10.246,11.63 -10.432,11.655 -10.617,11.667C-10.79,11.68 -10.963,11.692 -11.136,11.704C-11.482,11.717 -11.841,11.717 -12.187,11.704C-12.31,11.692 -12.446,11.692 -12.57,11.68C-12.817,11.655 -13.064,11.63 -13.299,11.593C-13.447,11.568 -13.583,11.544 -13.732,11.519L-13.732,-34.558C-12.384,-34.805 -10.901,-34.805 -9.566,-34.558C-9.566,-34.558 -9.307,-34.521 -8.948,-34.434C-8.763,-34.397 -8.553,-34.335 -8.33,-34.261C-3.387,-32.803 0,-28.316 0,-23.088" style="fill:white;fill-rule:nonzero;"/>
            </g>
        </g>
    </g>
</svg>
