<?xml version="1.0" encoding="UTF-8"?>
<svg id="Ebene_2" data-name="Ebene 2" xmlns="http://www.w3.org/2000/svg" viewBox="0 0 27.8 27.8">
  <defs>
    <style>
      .cls-1 {
        fill: #fff;
      }
    </style>
  </defs>
  <g id="Ebene_1-2" data-name="Ebene 1">
    <g>
      <path class="cls-1" d="M13.9,0C6.23,0,0,6.24,0,13.9c0,4.35,1.99,8.37,5.45,11.02,1.88,1.46,4.1,2.4,6.43,2.72,1.28.21,2.77.21,4.03.01,2.34-.33,4.56-1.27,6.43-2.73,3.47-2.65,5.46-6.67,5.46-11.02C27.8,6.24,21.57,0,13.9,0ZM23.45,20.99c-.86,1.15-1.94,2.16-3.13,2.92-1.9,1.24-4.12,1.89-6.42,1.89s-4.52-.65-6.42-1.89c-1.19-.76-2.27-1.77-3.13-2.92-1.54-2.07-2.35-4.52-2.35-7.09C2,7.34,7.34,2,13.9,2s11.9,5.34,11.9,11.9c0,2.57-.81,5.02-2.35,7.09Z"/>
      <path class="cls-1" d="M17.96,14.43l-.57-.29.43-.48c.82-.94,1.28-2.16,1.28-3.42,0-2.87-2.33-5.21-5.2-5.21s-5.2,2.34-5.2,5.21c0,1.26.46,2.48,1.29,3.42l.42.48-.57.29c-1.96,1.03-3.49,2.8-4.22,4.87.45.7.98,1.33,1.58,1.88.5-3.24,3.32-5.74,6.7-5.74s6.2,2.5,6.7,5.74c.6-.55,1.13-1.18,1.58-1.88-.73-2.07-2.26-3.84-4.22-4.87ZM13.9,13.44c-1.76,0-3.2-1.44-3.2-3.2s1.44-3.21,3.2-3.21,3.2,1.44,3.2,3.21-1.44,3.2-3.2,3.2Z"/>
    </g>
  </g>
</svg>