<?xml version="1.0" encoding="UTF-8"?>
<svg id="Ebene_2" data-name="Ebene 2" xmlns="http://www.w3.org/2000/svg" viewBox="0 0 28.8 28.8">
  <defs>
    <style>
      .cls-1 {
        fill: #1d1d1b;
      }
    </style>
  </defs>
  <g id="Ebene_1-2" data-name="Ebene 1">
    <g>
      <path class="cls-1" d="M14.4,0C6.46,0,0,6.46,0,14.4c0,4.65,2.22,8.79,5.65,11.42,1.9,1.47,4.18,2.47,6.66,2.82.68.11,1.38.16,2.09.16s1.41-.05,2.09-.16c2.48-.35,4.76-1.35,6.66-2.82,3.43-2.63,5.65-6.77,5.65-11.42C28.8,6.46,22.34,0,14.4,0ZM23.55,21.19c-.82,1.1-1.84,2.06-3,2.8-1.77,1.15-3.89,1.81-6.15,1.81s-4.38-.66-6.15-1.81c-1.16-.74-2.18-1.7-3-2.8-1.41-1.9-2.25-4.25-2.25-6.79,0-6.29,5.11-11.4,11.4-11.4s11.4,5.11,11.4,11.4c0,2.54-.84,4.89-2.25,6.79Z"/>
      <path class="cls-1" d="M18.69,14.49c.88-1,1.41-2.32,1.41-3.75,0-3.15-2.56-5.71-5.7-5.71s-5.7,2.56-5.7,5.71c0,1.43.53,2.75,1.41,3.75-2.14,1.12-3.79,3.05-4.54,5.38.67,1.09,1.53,2.04,2.55,2.81.02-3.44,2.82-6.24,6.28-6.24s6.26,2.8,6.28,6.24c1.02-.77,1.88-1.72,2.55-2.81-.75-2.33-2.4-4.26-4.54-5.38ZM14.4,13.44c-1.49,0-2.7-1.21-2.7-2.7s1.21-2.71,2.7-2.71,2.7,1.22,2.7,2.71-1.21,2.7-2.7,2.7Z"/>
    </g>
  </g>
</svg>