<?xml version="1.0" encoding="UTF-8"?>
<svg id="Ebene_1" xmlns="http://www.w3.org/2000/svg" version="1.1" viewBox="0 0 30 30">
  <!-- Generator: Adobe Illustrator 29.5.1, SVG Export Plug-In . SVG Version: 2.1.0 Build 141)  -->
  <path d="M25.11,28.11c-.8,0-1.55-.31-2.12-.88l-7.99-7.99-7.99,7.99c-.57.57-1.32.88-2.12.88s-1.56-.31-2.12-.88c-1.17-1.17-1.17-3.07,0-4.24l7.99-7.99L2.77,7.01c-.57-.57-.88-1.32-.88-2.12s.31-1.55.88-2.12,1.32-.88,2.12-.88,1.56.31,2.12.88l7.99,7.99,7.99-7.99c.57-.57,1.32-.88,2.12-.88s1.55.31,2.12.88.88,1.32.88,2.12-.31,1.55-.88,2.12l-7.99,7.99,7.99,7.99c1.17,1.17,1.17,3.07,0,4.24-.57.57-1.32.88-2.12.88Z"/>
</svg>